<!DOCTYPE svg PUBLIC "-//W3C//DTD SVG 1.1//EN" "http://www.w3.org/Graphics/SVG/1.1/DTD/svg11.dtd">
<!-- Uploaded to: SVG Repo, www.svgrepo.com, Transformed by: SVG Repo Mixer Tools -->
<svg width="80px" height="80px" viewBox="-486.4 -486.4 1484.80 1484.80" xmlns="http://www.w3.org/2000/svg" fill="#000000" transform="matrix(1, 0, 0, 1, 0, 0)rotate(0)">
<g id="SVGRepo_bgCarrier" stroke-width="0" transform="translate(56.31999999999999,56.31999999999999), scale(0.78)">
<path transform="translate(-486.4, -486.4), scale(46.4)" d="M16,30.852711651474237C18.32267443839513,30.43597090634079,19.78093879208289,28.199953098356037,21.640683710063076,26.74742487643559C23.197916121972227,25.5311698919381,24.71437186090189,24.38160767104248,26.09505110202889,22.968110658263054C27.69770890730045,21.3273588074495,30.296738273350826,20.041676731035555,30.427444549375153,17.751808930014327C30.56039522461475,15.422621077561676,27.846792784250596,13.978111805332382,26.724963452249092,11.932557874505644C25.77501667498025,10.200416176221125,25.481813736911846,8.207361339668525,24.317704428993636,6.611252552086166C22.97822967086413,4.774700419349958,21.56502269795715,2.8228791772164383,19.458277979868644,1.9692146900025325C17.278414165521003,1.0859219448997306,14.608835896652112,0.771126970234594,12.506219206031375,1.8251741110098987C10.401828631619896,2.8801105042799815,9.908775222598315,5.632365126937711,8.456061683737948,7.484653942843416C7.278304184606652,8.986358845519108,5.811623071264543,10.150835264949912,4.73871906547406,11.729159482542403C3.4333747159171497,13.649421302876698,1.1894570954501966,15.459348425447207,1.4680928179707493,17.76449299004379C1.7466917143002054,20.069332892720244,4.766421291854831,20.933007799053495,6.082426266681349,22.845606875764933C7.400953978438012,24.761872340078,7.376696385683812,27.52078800343463,9.186529121353363,28.9819841317104C11.046051823957836,30.483298214462554,13.647633714269887,31.27477979091583,16,30.852711651474237" fill="#cbd3fb" strokewidth="0"/>
</g>
<g id="SVGRepo_tracerCarrier" stroke-linecap="round" stroke-linejoin="round" stroke="#CCCCCC" stroke-width="5.12"/>
<g id="SVGRepo_iconCarrier"> <defs> <style>.cls-1{fill:none;stroke:#000000;stroke-linecap:round;stroke-linejoin:round;stroke-width:20px;}</style> </defs> <g data-name="Layer 2" id="Layer_2"> <g data-name="E430, Logout, multimedia, Ui" id="E430_Logout_multimedia_Ui"> <line class="cls-1" x1="291.14" x2="502" y1="234.62" y2="234.62"/> <polyline class="cls-1" points="437.83 181.15 502 234.62 437.83 288.1"/> <polyline class="cls-1" points="10 459.25 10 10 331.31 10 331.31 459.25 230.9 459.25"/> <polygon class="cls-1" points="230.9 499.41 10 459.25 10 10 230.9 50.16 230.9 499.41"/> <polygon class="cls-1" points="180.69 178.1 60.2 158.02 60.2 107.82 180.69 127.9 180.69 178.1"/> </g> </g> </g>
</svg>